# Blender v2.79 (sub 0) OBJ File: ''
# www.blender.org
mtllib balloonstring.mtl
o Line02
v -7.187505 26.526979 257.146545
v -6.199600 26.526997 177.640503
v -6.180838 26.456997 177.640137
v -7.168750 26.456980 257.146790
v -6.129578 26.405752 177.639130
v -7.117510 26.405737 257.147400
v -6.059555 26.386997 177.637756
v -7.047516 26.386980 257.148285
v -5.989532 26.405752 177.636383
v -6.977521 26.405737 257.149139
v -5.938272 26.456997 177.635376
v -6.926281 26.456980 257.149780
v -5.919510 26.526997 177.635010
v -6.907526 26.526979 257.150024
v -5.938272 26.596996 177.635376
v -6.926281 26.596979 257.149780
v -5.989532 26.648241 177.636383
v -6.977521 26.648224 257.149170
v -6.059555 26.666996 177.637756
v -7.047516 26.666979 257.148285
v -6.129578 26.648239 177.639145
v -7.117510 26.648224 257.147430
v -6.180838 26.596996 177.640152
v -7.168750 26.596979 257.146790
v -11.373388 26.527016 77.690491
v -11.354605 26.457016 77.690529
v -11.303287 26.405773 77.690643
v -11.233185 26.387016 77.690804
v -11.163083 26.405773 77.690956
v -11.111765 26.457016 77.691071
v -11.092981 26.527016 77.691116
v -11.111765 26.597015 77.691078
v -11.163083 26.648260 77.690964
v -11.233185 26.667017 77.690804
v -11.303287 26.648260 77.690651
v -11.354605 26.597015 77.690536
v -10.773548 26.527018 67.019432
v -10.754802 26.457018 67.020149
v -10.703588 26.405775 67.022110
v -10.633627 26.387018 67.024780
v -10.563667 26.405775 67.027451
v -10.512453 26.457018 67.029411
v -10.493707 26.527018 67.030128
v -10.512453 26.597019 67.029411
v -10.563667 26.648262 67.027451
v -10.633627 26.667019 67.024780
v -10.703588 26.648262 67.022110
v -10.754802 26.597019 67.020149
v -10.572878 26.527021 57.112415
v -10.554119 26.457022 57.112476
v -10.502868 26.405777 57.112629
v -10.432858 26.387020 57.112843
v -10.362848 26.405777 57.113056
v -10.311597 26.457022 57.113209
v -10.292838 26.527021 57.113270
v -10.311597 26.597021 57.113209
v -10.362848 26.648264 57.113056
v -10.432858 26.667021 57.112843
v -10.502869 26.648264 57.112629
v -10.554119 26.597021 57.112476
v -10.704369 26.527023 47.833485
v -10.685618 26.457024 47.832928
v -10.634392 26.405779 47.831409
v -10.564414 26.387024 47.829327
v -10.494436 26.405779 47.827244
v -10.443209 26.457024 47.825726
v -10.424459 26.527023 47.825169
v -10.443209 26.597023 47.825726
v -10.494436 26.648266 47.827244
v -10.564414 26.667023 47.829327
v -10.634392 26.648266 47.831409
v -10.685618 26.597023 47.832928
v -11.101604 26.527025 39.056614
v -11.082878 26.457026 39.055523
v -11.031716 26.405783 39.052547
v -10.961828 26.387026 39.048489
v -10.891941 26.405783 39.044430
v -10.840779 26.457026 39.041454
v -10.822053 26.527025 39.040363
v -10.840779 26.597025 39.041454
v -10.891941 26.648270 39.044430
v -10.961828 26.667025 39.048489
v -11.031716 26.648270 39.052547
v -11.082878 26.597025 39.055523
v -11.698195 26.527025 30.655918
v -11.679498 26.457026 30.654415
v -11.628416 26.405783 30.650318
v -11.558638 26.387026 30.644718
v -11.488859 26.405783 30.639118
v -11.437778 26.457026 30.635021
v -11.419081 26.527025 30.633518
v -11.437778 26.597025 30.635021
v -11.488859 26.648270 30.639118
v -11.558638 26.667027 30.644718
v -11.628416 26.648270 30.650318
v -11.679498 26.597025 30.654415
v -12.427758 26.527029 22.505451
v -12.409085 26.457027 22.503689
v -12.358068 26.405785 22.498875
v -12.288376 26.387028 22.492298
v -12.218685 26.405785 22.485722
v -12.167667 26.457027 22.480907
v -12.148993 26.527029 22.479145
v -12.167667 26.597029 22.480907
v -12.218685 26.648272 22.485722
v -12.288376 26.667028 22.492298
v -12.358068 26.648272 22.498875
v -12.409085 26.597029 22.503689
v -13.223896 26.527031 14.479375
v -13.205231 26.457031 14.477529
v -13.154238 26.405787 14.472470
v -13.084579 26.387030 14.465558
v -13.014921 26.405787 14.458646
v -12.963928 26.457031 14.453588
v -12.945263 26.527031 14.451741
v -12.963928 26.597031 14.453588
v -13.014921 26.648273 14.458646
v -13.084579 26.667030 14.465558
v -13.154238 26.648273 14.472470
v -13.205231 26.597031 14.477529
vt 0.000000 0.000000
vt 1.000000 0.000000
vt 1.000000 1.000000
vt 0.000000 1.000000
vt 0.000000 0.000000
vt 1.000000 0.000000
vt 1.000000 1.000000
vt 0.000000 1.000000
vt 0.000000 0.000000
vt 1.000000 0.000000
vt 1.000000 1.000000
vt 0.000000 1.000000
vt 0.000000 0.000000
vt 1.000000 0.000000
vt 1.000000 1.000000
vt 0.000000 1.000000
vt 0.000000 0.000000
vt 1.000000 0.000000
vt 1.000000 1.000000
vt 0.000000 1.000000
vt 0.000000 0.000000
vt 1.000000 0.000000
vt 1.000000 1.000000
vt 0.000000 1.000000
vt 0.000000 0.000000
vt 1.000000 0.000000
vt 1.000000 1.000000
vt 0.000000 1.000000
vt 0.000000 0.000000
vt 1.000000 0.000000
vt 1.000000 1.000000
vt 0.000000 1.000000
vt 0.000000 0.000000
vt 1.000000 0.000000
vt 1.000000 1.000000
vt 0.000000 1.000000
vt 0.000000 0.000000
vt 1.000000 0.000000
vt 1.000000 1.000000
vt 0.000000 1.000000
vt 0.000000 0.000000
vt 1.000000 0.000000
vt 1.000000 1.000000
vt 0.000000 1.000000
vt 0.000000 0.000000
vt 1.000000 0.000000
vt 1.000000 1.000000
vt 0.000000 1.000000
vt 0.000000 0.000000
vt 1.000000 0.000000
vt 1.000000 1.000000
vt 0.000000 1.000000
vt 0.000000 0.000000
vt 1.000000 0.000000
vt 1.000000 1.000000
vt 0.000000 1.000000
vt 0.000000 0.000000
vt 1.000000 0.000000
vt 1.000000 1.000000
vt 0.000000 1.000000
vt 0.000000 0.000000
vt 1.000000 0.000000
vt 1.000000 1.000000
vt 0.000000 1.000000
vt 0.000000 0.000000
vt 1.000000 0.000000
vt 1.000000 1.000000
vt 0.000000 1.000000
vt 0.000000 0.000000
vt 1.000000 0.000000
vt 1.000000 1.000000
vt 0.000000 1.000000
vt 0.000000 0.000000
vt 1.000000 0.000000
vt 1.000000 1.000000
vt 0.000000 1.000000
vt 0.000000 0.000000
vt 1.000000 0.000000
vt 1.000000 1.000000
vt 0.000000 1.000000
vt 0.000000 0.000000
vt 1.000000 0.000000
vt 1.000000 1.000000
vt 0.000000 1.000000
vt 0.000000 0.000000
vt 1.000000 0.000000
vt 1.000000 1.000000
vt 0.000000 1.000000
vt 0.000000 0.000000
vt 1.000000 0.000000
vt 1.000000 1.000000
vt 0.000000 1.000000
vt 0.000000 0.000000
vt 1.000000 0.000000
vt 1.000000 1.000000
vt 0.000000 1.000000
vt 0.000000 0.000000
vt 1.000000 0.000000
vt 1.000000 1.000000
vt 0.000000 1.000000
vt 0.000000 0.000000
vt 1.000000 0.000000
vt 1.000000 1.000000
vt 0.000000 1.000000
vt 0.000000 0.000000
vt 1.000000 0.000000
vt 1.000000 1.000000
vt 0.000000 1.000000
vt 0.000000 0.000000
vt 1.000000 0.000000
vt 1.000000 1.000000
vt 0.000000 1.000000
vt 0.000000 0.000000
vt 1.000000 0.000000
vt 1.000000 1.000000
vt 0.000000 1.000000
vt 0.000000 0.000000
vt 1.000000 0.000000
vt 1.000000 1.000000
vt 0.000000 1.000000
vt 0.000000 0.000000
vt 1.000000 0.000000
vt 1.000000 1.000000
vt 0.000000 1.000000
vt 0.000000 0.000000
vt 1.000000 0.000000
vt 1.000000 1.000000
vt 0.000000 1.000000
vt 0.000000 0.000000
vt 1.000000 0.000000
vt 1.000000 1.000000
vt 0.000000 1.000000
vt 0.000000 0.000000
vt 1.000000 0.000000
vt 1.000000 1.000000
vt 0.000000 1.000000
vt 0.000000 0.000000
vt 1.000000 0.000000
vt 1.000000 1.000000
vt 0.000000 1.000000
vt 0.000000 0.000000
vt 1.000000 0.000000
vt 1.000000 1.000000
vt 0.000000 1.000000
vt 0.000000 0.000000
vt 1.000000 0.000000
vt 1.000000 1.000000
vt 0.000000 1.000000
vt 0.000000 0.000000
vt 1.000000 0.000000
vt 1.000000 1.000000
vt 0.000000 1.000000
vt 0.000000 0.000000
vt 1.000000 0.000000
vt 1.000000 1.000000
vt 0.000000 1.000000
vt 0.000000 0.000000
vt 1.000000 0.000000
vt 1.000000 1.000000
vt 0.000000 1.000000
vt 0.000000 0.000000
vt 1.000000 0.000000
vt 1.000000 1.000000
vt 0.000000 1.000000
vt 0.000000 0.000000
vt 1.000000 0.000000
vt 1.000000 1.000000
vt 0.000000 1.000000
vt 0.000000 0.000000
vt 1.000000 0.000000
vt 1.000000 1.000000
vt 0.000000 1.000000
vt 0.000000 0.000000
vt 1.000000 0.000000
vt 1.000000 1.000000
vt 0.000000 1.000000
vt 0.000000 0.000000
vt 1.000000 0.000000
vt 1.000000 1.000000
vt 0.000000 1.000000
vt 0.000000 0.000000
vt 1.000000 0.000000
vt 1.000000 1.000000
vt 0.000000 1.000000
vt 0.000000 0.000000
vt 1.000000 0.000000
vt 1.000000 1.000000
vt 0.000000 1.000000
vt 0.000000 0.000000
vt 1.000000 0.000000
vt 1.000000 1.000000
vt 0.000000 1.000000
vt 0.000000 0.000000
vt 1.000000 0.000000
vt 1.000000 1.000000
vt 0.000000 1.000000
vt 0.000000 0.000000
vt 1.000000 0.000000
vt 1.000000 1.000000
vt 0.000000 1.000000
vt 0.000000 0.000000
vt 1.000000 0.000000
vt 1.000000 1.000000
vt 0.000000 1.000000
vt 0.000000 0.000000
vt 1.000000 0.000000
vt 1.000000 1.000000
vt 0.000000 1.000000
vt 0.000000 0.000000
vt 1.000000 0.000000
vt 1.000000 1.000000
vt 0.000000 1.000000
vt 0.000000 0.000000
vt 1.000000 0.000000
vt 1.000000 1.000000
vt 0.000000 1.000000
vt 0.000000 0.000000
vt 1.000000 0.000000
vt 1.000000 1.000000
vt 0.000000 1.000000
vt 0.000000 0.000000
vt 1.000000 0.000000
vt 1.000000 1.000000
vt 0.000000 1.000000
vt 0.000000 0.000000
vt 1.000000 0.000000
vt 1.000000 1.000000
vt 0.000000 1.000000
vt 0.000000 0.000000
vt 1.000000 0.000000
vt 1.000000 1.000000
vt 0.000000 1.000000
vt 0.000000 0.000000
vt 1.000000 0.000000
vt 1.000000 1.000000
vt 0.000000 1.000000
vt 0.000000 0.000000
vt 1.000000 0.000000
vt 1.000000 1.000000
vt 0.000000 1.000000
vt 0.000000 0.000000
vt 1.000000 0.000000
vt 1.000000 1.000000
vt 0.000000 1.000000
vt 0.000000 0.000000
vt 1.000000 0.000000
vt 1.000000 1.000000
vt 0.000000 1.000000
vt 0.000000 0.000000
vt 1.000000 0.000000
vt 1.000000 1.000000
vt 0.000000 1.000000
vt 0.000000 0.000000
vt 1.000000 0.000000
vt 1.000000 1.000000
vt 0.000000 1.000000
vt 0.000000 0.000000
vt 1.000000 0.000000
vt 1.000000 1.000000
vt 0.000000 1.000000
vt 0.000000 0.000000
vt 1.000000 0.000000
vt 1.000000 1.000000
vt 0.000000 1.000000
vt 0.000000 0.000000
vt 1.000000 0.000000
vt 1.000000 1.000000
vt 0.000000 1.000000
vt 0.000000 0.000000
vt 1.000000 0.000000
vt 1.000000 1.000000
vt 0.000000 1.000000
vt 0.000000 0.000000
vt 1.000000 0.000000
vt 1.000000 1.000000
vt 0.000000 1.000000
vt 0.000000 0.000000
vt 1.000000 0.000000
vt 1.000000 1.000000
vt 0.000000 1.000000
vt 0.000000 0.000000
vt 1.000000 0.000000
vt 1.000000 1.000000
vt 0.000000 1.000000
vt 0.000000 0.000000
vt 1.000000 0.000000
vt 1.000000 1.000000
vt 0.000000 1.000000
vt 0.000000 0.000000
vt 1.000000 0.000000
vt 1.000000 1.000000
vt 0.000000 1.000000
vt 0.000000 0.000000
vt 1.000000 0.000000
vt 1.000000 1.000000
vt 0.000000 1.000000
vt 0.000000 0.000000
vt 1.000000 0.000000
vt 1.000000 1.000000
vt 0.000000 1.000000
vt 0.000000 0.000000
vt 1.000000 0.000000
vt 1.000000 1.000000
vt 0.000000 1.000000
vt 0.000000 0.000000
vt 1.000000 0.000000
vt 1.000000 1.000000
vt 0.000000 1.000000
vt 0.000000 0.000000
vt 1.000000 0.000000
vt 1.000000 1.000000
vt 0.000000 1.000000
vt 0.000000 0.000000
vt 1.000000 0.000000
vt 1.000000 1.000000
vt 0.000000 1.000000
vt 0.000000 0.000000
vt 1.000000 0.000000
vt 1.000000 1.000000
vt 0.000000 1.000000
vt 0.000000 0.000000
vt 1.000000 0.000000
vt 1.000000 1.000000
vt 0.000000 1.000000
vt 0.000000 0.000000
vt 1.000000 0.000000
vt 1.000000 1.000000
vt 0.000000 1.000000
vt 0.000000 0.000000
vt 1.000000 0.000000
vt 1.000000 1.000000
vt 0.000000 1.000000
vt 0.000000 0.000000
vt 1.000000 0.000000
vt 1.000000 1.000000
vt 0.000000 1.000000
vt 0.000000 0.000000
vt 1.000000 0.000000
vt 1.000000 1.000000
vt 0.000000 1.000000
vt 0.000000 0.000000
vt 1.000000 0.000000
vt 1.000000 1.000000
vt 0.000000 1.000000
vt 0.000000 0.000000
vt 1.000000 0.000000
vt 1.000000 1.000000
vt 0.000000 1.000000
vt 0.000000 0.000000
vt 1.000000 0.000000
vt 1.000000 1.000000
vt 0.000000 1.000000
vt 0.000000 0.000000
vt 1.000000 0.000000
vt 1.000000 1.000000
vt 0.000000 1.000000
vt 0.000000 0.000000
vt 1.000000 0.000000
vt 1.000000 1.000000
vt 0.000000 1.000000
vt 0.000000 0.000000
vt 1.000000 0.000000
vt 1.000000 1.000000
vt 0.000000 1.000000
vt 0.000000 0.000000
vt 1.000000 0.000000
vt 1.000000 1.000000
vt 0.000000 1.000000
vt 0.000000 0.000000
vt 1.000000 0.000000
vt 1.000000 1.000000
vt 0.000000 1.000000
vt 0.000000 0.000000
vt 1.000000 0.000000
vt 1.000000 1.000000
vt 0.000000 1.000000
vt 0.000000 0.000000
vt 1.000000 0.000000
vt 1.000000 1.000000
vt 0.000000 1.000000
vt 0.000000 0.000000
vt 1.000000 0.000000
vt 1.000000 1.000000
vt 0.000000 1.000000
vt 0.000000 0.000000
vt 1.000000 0.000000
vt 1.000000 1.000000
vt 0.000000 1.000000
vt 0.000000 0.000000
vt 1.000000 0.000000
vt 1.000000 1.000000
vt 0.000000 1.000000
vt 0.000000 0.000000
vt 1.000000 0.000000
vt 1.000000 1.000000
vt 0.000000 1.000000
vt 0.000000 0.000000
vt 1.000000 0.000000
vt 1.000000 1.000000
vt 0.000000 1.000000
vt 0.000000 0.000000
vt 1.000000 0.000000
vt 1.000000 1.000000
vt 0.000000 1.000000
vt 0.000000 0.000000
vt 1.000000 0.000000
vt 1.000000 1.000000
vt 0.000000 1.000000
vt 0.000000 0.000000
vt 1.000000 0.000000
vt 1.000000 1.000000
vt 0.000000 1.000000
vt 0.000000 0.000000
vt 1.000000 0.000000
vt 1.000000 1.000000
vt 0.000000 1.000000
vt 0.000000 0.000000
vt 1.000000 0.000000
vt 1.000000 1.000000
vt 0.000000 1.000000
vt 0.000000 0.000000
vt 1.000000 0.000000
vt 1.000000 1.000000
vt 0.000000 1.000000
vt 0.000000 0.000000
vt 1.000000 0.000000
vt 1.000000 1.000000
vt 0.000000 1.000000
vt 0.000000 0.000000
vt 1.000000 0.000000
vt 1.000000 1.000000
vt 0.000000 1.000000
vt 1.000000 0.000000
vt 1.000000 1.000000
vt 1.000000 0.000000
vt 1.000000 1.000000
vt 1.000000 0.000000
vt 1.000000 1.000000
vt 1.000000 0.000000
vt 1.000000 1.000000
vt 1.000000 0.000000
vt 1.000000 1.000000
vt 0.000000 0.000000
vt 0.000000 1.000000
vt 0.000000 0.000000
vt 0.000000 1.000000
vt 0.000000 0.000000
vt 0.000000 1.000000
vt 0.000000 0.000000
vt 0.000000 1.000000
vt 0.000000 0.000000
vt 0.000000 0.000000
vn -0.9993 0.0000 -0.0377
vn -0.9998 -0.0000 0.0196
vn -0.8644 -0.5025 0.0170
vn -0.7069 -0.7069 -0.0231
vn -0.4958 -0.8684 0.0097
vn -0.7070 -0.7070 -0.0133
vn 0.0053 -1.0000 -0.0001
vn 0.0000 -1.0000 -0.0000
vn 0.5037 -0.8638 -0.0099
vn 0.7071 -0.7070 0.0133
vn 0.8671 -0.4979 -0.0170
vn 0.7069 -0.7069 0.0231
vn 0.9998 -0.0000 -0.0196
vn 0.9993 0.0000 0.0377
vn 0.8671 0.4979 -0.0170
vn 0.7069 0.7069 0.0231
vn 0.5037 0.8638 -0.0099
vn 0.7071 0.7070 0.0133
vn 0.0053 1.0000 -0.0001
vn -0.0000 1.0000 -0.0000
vn -0.4958 0.8684 0.0097
vn -0.7070 0.7070 -0.0134
vn -0.8644 0.5025 0.0170
vn -0.7069 0.7069 -0.0231
vn -1.0000 -0.0000 -0.0022
vn -0.8679 -0.4967 -0.0019
vn -0.5061 -0.8625 -0.0011
vn -0.0089 -1.0000 -0.0000
vn 0.4928 -0.8701 0.0011
vn 0.8635 -0.5044 0.0019
vn 1.0000 -0.0000 0.0022
vn 0.8635 0.5044 0.0019
vn 0.4928 0.8701 0.0011
vn -0.0089 1.0000 -0.0000
vn -0.5061 0.8625 -0.0011
vn -0.8679 0.4967 -0.0019
vn -0.9993 -0.0000 -0.0382
vn -0.8646 -0.5013 -0.0330
vn -0.4974 -0.8673 -0.0190
vn 0.0030 -1.0000 0.0001
vn 0.5018 -0.8648 0.0192
vn 0.8661 -0.4988 0.0331
vn 0.9993 -0.0000 0.0382
vn 0.8661 0.4988 0.0331
vn 0.5018 0.8648 0.0192
vn 0.0030 1.0000 0.0001
vn -0.4974 0.8673 -0.0190
vn -0.8646 0.5013 -0.0330
vn -1.0000 -0.0000 -0.0030
vn -0.8653 -0.5013 -0.0026
vn -0.4978 -0.8673 -0.0015
vn 0.0028 -1.0000 0.0000
vn 0.5021 -0.8648 0.0015
vn 0.8667 -0.4988 0.0026
vn 1.0000 -0.0000 0.0030
vn 0.8667 0.4988 0.0026
vn 0.5021 0.8648 0.0015
vn 0.0028 1.0000 0.0000
vn -0.4978 0.8673 -0.0015
vn -0.8653 0.5013 -0.0026
vn -0.9996 0.0000 0.0297
vn -0.8650 -0.5011 0.0257
vn -0.4978 -0.8672 0.0148
vn 0.0026 -1.0000 -0.0001
vn 0.5017 -0.8649 -0.0149
vn 0.8663 -0.4989 -0.0257
vn 0.9996 -0.0000 -0.0297
vn 0.8663 0.4989 -0.0257
vn 0.5017 0.8649 -0.0149
vn 0.0026 1.0000 -0.0001
vn -0.4978 0.8672 0.0148
vn -0.8650 0.5012 0.0257
vn -0.9983 0.0000 0.0580
vn -0.8640 -0.5009 0.0502
vn -0.4975 -0.8670 0.0289
vn 0.0021 -1.0000 -0.0001
vn 0.5007 -0.8651 -0.0291
vn 0.8651 -0.4991 -0.0503
vn 0.9983 0.0000 -0.0580
vn 0.8651 0.4991 -0.0503
vn 0.5007 0.8651 -0.0291
vn 0.0021 1.0000 -0.0001
vn -0.4975 0.8670 0.0289
vn -0.8640 0.5009 0.0502
vn -0.9968 0.0000 0.0800
vn -0.8629 -0.5007 0.0693
vn -0.4972 -0.8667 0.0399
vn 0.0015 -1.0000 -0.0001
vn 0.4995 -0.8654 -0.0401
vn 0.8636 -0.4994 -0.0693
vn 0.9968 0.0000 -0.0800
vn 0.8636 0.4994 -0.0693
vn 0.4995 0.8654 -0.0401
vn 0.0015 1.0000 -0.0001
vn -0.4973 0.8667 0.0399
vn -0.8629 0.5007 0.0693
vn -0.9956 0.0000 0.0939
vn -0.8620 -0.5003 0.0813
vn -0.4972 -0.8664 0.0469
vn 0.0008 -1.0000 -0.0001
vn 0.4984 -0.8657 -0.0470
vn 0.8624 -0.4997 -0.0814
vn 0.9956 0.0000 -0.0939
vn 0.8624 0.4997 -0.0814
vn 0.4984 0.8657 -0.0470
vn 0.0008 1.0000 -0.0001
vn -0.4972 0.8664 0.0469
vn -0.8620 0.5003 0.0813
vn -0.9580 0.0000 0.2869
vn -0.6955 -0.6955 0.1804
vn -0.7032 -0.7032 0.1053
vn 0.7032 -0.7032 -0.1053
vn 0.6955 -0.6955 -0.1804
vn 0.9579 -0.0000 -0.2870
vn 0.6955 0.6955 -0.1804
vn 0.7032 0.7032 -0.1052
vn -0.7032 0.7032 0.1053
vn -0.6955 0.6955 0.1805
vn -0.9993 0.0001 -0.0376
vn 0.0001 1.0000 -0.0001
vn -0.7071 0.7070 -0.0133
vn -0.7069 0.7070 -0.0231
vn 0.7069 0.7070 0.0231
vn 0.7070 -0.7069 0.0231
vn 0.9993 0.0001 0.0377
vn -0.0001 -1.0000 -0.0000
vn -0.7069 -0.7070 -0.0231
vn -0.7071 -0.7070 -0.0133
vn -0.9580 0.0001 0.2869
vn 0.0001 -1.0000 0.0000
vn -0.7032 -0.7032 0.1054
vn 0.0001 1.0000 0.0000
vn 0.7032 0.7032 -0.1053
vn -0.7032 0.7032 0.1054
vn 0.9579 0.0001 -0.2869
vn -0.6955 -0.6955 0.1805
vn -0.6955 0.6955 0.1803
usemtl balloon
s 1
f 1/1/1 2/2/2 3/3/3 4/4/4
f 4/5/4 3/6/3 5/7/5 6/8/6
f 6/9/6 5/10/5 7/11/7 8/12/8
f 8/13/8 7/14/7 9/15/9 10/16/10
f 10/17/10 9/18/9 11/19/11 12/20/12
f 12/21/12 11/22/11 13/23/13 14/24/14
f 14/25/14 13/26/13 15/27/15 16/28/16
f 16/29/16 15/30/15 17/31/17 18/32/18
f 18/33/18 17/34/17 19/35/19 20/36/20
f 20/37/20 19/38/19 21/39/21 22/40/22
f 22/41/22 21/42/21 23/43/23 24/44/24
f 24/45/24 23/46/23 2/47/2 1/48/1
f 2/49/2 25/50/25 26/51/26 3/52/3
f 3/53/3 26/54/26 27/55/27 5/56/5
f 5/57/5 27/58/27 28/59/28 7/60/7
f 7/61/7 28/62/28 29/63/29 9/64/9
f 9/65/9 29/66/29 30/67/30 11/68/11
f 11/69/11 30/70/30 31/71/31 13/72/13
f 13/73/13 31/74/31 32/75/32 15/76/15
f 15/77/15 32/78/32 33/79/33 17/80/17
f 17/81/17 33/82/33 34/83/34 19/84/19
f 19/85/19 34/86/34 35/87/35 21/88/21
f 21/89/21 35/90/35 36/91/36 23/92/23
f 23/93/23 36/94/36 25/95/25 2/96/2
f 25/97/25 37/98/37 38/99/38 26/100/26
f 26/101/26 38/102/38 39/103/39 27/104/27
f 27/105/27 39/106/39 40/107/40 28/108/28
f 28/109/28 40/110/40 41/111/41 29/112/29
f 29/113/29 41/114/41 42/115/42 30/116/30
f 30/117/30 42/118/42 43/119/43 31/120/31
f 31/121/31 43/122/43 44/123/44 32/124/32
f 32/125/32 44/126/44 45/127/45 33/128/33
f 33/129/33 45/130/45 46/131/46 34/132/34
f 34/133/34 46/134/46 47/135/47 35/136/35
f 35/137/35 47/138/47 48/139/48 36/140/36
f 36/141/36 48/142/48 37/143/37 25/144/25
f 37/145/37 49/146/49 50/147/50 38/148/38
f 38/149/38 50/150/50 51/151/51 39/152/39
f 39/153/39 51/154/51 52/155/52 40/156/40
f 40/157/40 52/158/52 53/159/53 41/160/41
f 41/161/41 53/162/53 54/163/54 42/164/42
f 42/165/42 54/166/54 55/167/55 43/168/43
f 43/169/43 55/170/55 56/171/56 44/172/44
f 44/173/44 56/174/56 57/175/57 45/176/45
f 45/177/45 57/178/57 58/179/58 46/180/46
f 46/181/46 58/182/58 59/183/59 47/184/47
f 47/185/47 59/186/59 60/187/60 48/188/48
f 48/189/48 60/190/60 49/191/49 37/192/37
f 49/193/49 61/194/61 62/195/62 50/196/50
f 50/197/50 62/198/62 63/199/63 51/200/51
f 51/201/51 63/202/63 64/203/64 52/204/52
f 52/205/52 64/206/64 65/207/65 53/208/53
f 53/209/53 65/210/65 66/211/66 54/212/54
f 54/213/54 66/214/66 67/215/67 55/216/55
f 55/217/55 67/218/67 68/219/68 56/220/56
f 56/221/56 68/222/68 69/223/69 57/224/57
f 57/225/57 69/226/69 70/227/70 58/228/58
f 58/229/58 70/230/70 71/231/71 59/232/59
f 59/233/59 71/234/71 72/235/72 60/236/60
f 60/237/60 72/238/72 61/239/61 49/240/49
f 61/241/61 73/242/73 74/243/74 62/244/62
f 62/245/62 74/246/74 75/247/75 63/248/63
f 63/249/63 75/250/75 76/251/76 64/252/64
f 64/253/64 76/254/76 77/255/77 65/256/65
f 65/257/65 77/258/77 78/259/78 66/260/66
f 66/261/66 78/262/78 79/263/79 67/264/67
f 67/265/67 79/266/79 80/267/80 68/268/68
f 68/269/68 80/270/80 81/271/81 69/272/69
f 69/273/69 81/274/81 82/275/82 70/276/70
f 70/277/70 82/278/82 83/279/83 71/280/71
f 71/281/71 83/282/83 84/283/84 72/284/72
f 72/285/72 84/286/84 73/287/73 61/288/61
f 73/289/73 85/290/85 86/291/86 74/292/74
f 74/293/74 86/294/86 87/295/87 75/296/75
f 75/297/75 87/298/87 88/299/88 76/300/76
f 76/301/76 88/302/88 89/303/89 77/304/77
f 77/305/77 89/306/89 90/307/90 78/308/78
f 78/309/78 90/310/90 91/311/91 79/312/79
f 79/313/79 91/314/91 92/315/92 80/316/80
f 80/317/80 92/318/92 93/319/93 81/320/81
f 81/321/81 93/322/93 94/323/94 82/324/82
f 82/325/82 94/326/94 95/327/95 83/328/83
f 83/329/83 95/330/95 96/331/96 84/332/84
f 84/333/84 96/334/96 85/335/85 73/336/73
f 85/337/85 97/338/97 98/339/98 86/340/86
f 86/341/86 98/342/98 99/343/99 87/344/87
f 87/345/87 99/346/99 100/347/100 88/348/88
f 88/349/88 100/350/100 101/351/101 89/352/89
f 89/353/89 101/354/101 102/355/102 90/356/90
f 90/357/90 102/358/102 103/359/103 91/360/91
f 91/361/91 103/362/103 104/363/104 92/364/92
f 92/365/92 104/366/104 105/367/105 93/368/93
f 93/369/93 105/370/105 106/371/106 94/372/94
f 94/373/94 106/374/106 107/375/107 95/376/95
f 95/377/95 107/378/107 108/379/108 96/380/96
f 96/381/96 108/382/108 97/383/97 85/384/85
f 97/385/97 109/386/109 110/387/110 98/388/98
f 98/389/98 110/390/110 111/391/111 99/392/99
f 99/393/99 111/394/111 112/395/8 100/396/100
f 100/397/100 112/398/8 113/399/112 101/400/101
f 101/401/101 113/402/112 114/403/113 102/404/102
f 102/405/102 114/406/113 115/407/114 103/408/103
f 103/409/103 115/410/114 116/411/115 104/412/104
f 104/413/104 116/414/115 117/415/116 105/416/105
f 105/417/105 117/418/116 118/419/20 106/420/106
f 106/421/106 118/422/20 119/423/117 107/424/107
f 107/425/107 119/426/117 120/427/118 108/428/108
f 108/429/108 120/430/118 109/431/109 97/432/97
f 1/1/119 20/433/120 22/434/121 24/44/122
f 1/1/119 16/435/123 18/436/18 20/36/120
f 1/1/119 12/437/124 14/438/125 16/28/123
f 1/1/119 8/439/126 10/440/10 12/20/124
f 1/1/119 4/441/127 6/442/128 8/12/126
f 109/443/129 113/402/112 112/395/130 111/444/131
f 118/445/132 117/418/133 109/431/129 119/446/134
f 116/447/115 115/410/135 109/431/129 117/448/133
f 114/449/113 113/402/112 109/431/129 115/450/135
f 111/451/131 110/390/136 109/431/129
f 120/452/137 119/426/134 109/431/129
