# Blender v2.79 (sub 0) OBJ File: ''
# www.blender.org
mtllib MainTailTest.mtl
o Spowith_f1_camel_cauda
v 82.498047 17.269753 -446.159973
v 81.792984 17.667068 -445.994354
v 88.648415 18.108297 -442.410065
v 89.116302 17.723246 -442.474670
v 92.587257 18.539392 -438.807800
v 92.977859 18.162184 -438.807922
v 96.099548 19.415932 -431.672974
v 96.500114 19.042595 -431.641144
v 29.855349 17.222403 -446.546082
v 30.428566 17.635557 -446.250000
v 76.582596 17.633266 -446.268890
v 77.590309 17.222403 -446.546082
v 25.186928 17.365650 -445.366638
v 25.803759 17.766127 -445.174866
v 29.855349 16.477922 -446.455627
v 30.428566 16.147650 -446.069336
v 25.803759 16.278215 -444.994202
v 25.186928 16.621162 -445.276184
v 8.002050 20.052710 -426.078674
v 7.575325 19.694567 -425.921875
v 3.764424 20.423340 -419.820679
v 4.150367 20.775875 -420.023712
v 12.254656 19.360641 -431.961151
v 11.759272 18.993017 -431.882324
v 20.873737 18.093760 -442.403992
v 20.304787 17.711140 -442.448608
v 96.624908 20.112440 -426.044952
v 94.124100 21.274101 -415.921387
v 2.243270 21.279236 -415.879059
v 96.099548 17.928020 -431.492310
v 81.792984 16.179159 -445.813629
v 88.648415 16.620388 -442.229309
v 92.587257 17.051483 -438.627106
v 96.624908 18.624519 -425.864258
v 76.582596 16.145355 -446.088196
v 4.150367 19.287970 -419.842957
v 77.590309 16.477922 -446.455627
v 1.666267 20.940933 -415.558807
v 1.666267 20.196449 -415.468323
v 94.455208 20.196449 -415.468323
v 94.455208 20.940933 -415.558807
v 97.055222 18.996456 -425.907623
v 97.055222 19.740940 -425.997986
v 94.124100 19.786190 -415.740662
v 3.764424 19.678862 -419.730255
v 7.575325 18.950085 -425.831482
v 8.002050 18.564804 -425.897980
v 20.873737 16.605848 -442.223297
v 20.304787 16.966656 -442.358185
v 12.254656 17.872725 -431.780487
v 11.759272 18.248541 -431.791931
v 2.243270 19.791325 -415.698395
v 82.498047 16.525270 -446.069580
v 92.977859 17.417704 -438.717468
v 89.116302 16.978764 -442.384277
v 96.500114 18.298115 -431.550781
v -88.648415 18.108297 -442.410065
v -81.792984 17.667068 -445.994354
v -82.498047 17.269753 -446.159973
v -89.116302 17.723246 -442.474670
v -92.587257 18.539392 -438.807800
v -92.977859 18.162184 -438.807922
v -96.099548 19.415932 -431.672974
v -96.500114 19.042595 -431.641144
v -76.582596 17.633266 -446.268890
v -30.428566 17.635557 -446.250000
v -29.855345 17.222403 -446.546082
v -77.590317 17.222403 -446.546082
v -25.803762 17.766127 -445.174866
v -25.186928 17.365650 -445.366638
v -25.803762 16.278215 -444.994202
v -30.428566 16.147650 -446.069336
v -29.855345 16.477922 -446.455627
v -25.186928 16.621162 -445.276184
v -3.764423 20.423340 -419.820679
v -7.575325 19.694567 -425.921875
v -8.002051 20.052710 -426.078674
v -4.150367 20.775875 -420.023712
v -11.759272 18.993017 -431.882324
v -12.254657 19.360641 -431.961151
v -20.304787 17.711140 -442.448608
v -20.873739 18.093760 -442.403992
v -96.624908 20.112440 -426.044922
v -94.124100 21.274101 -415.921387
v -2.243269 21.279236 -415.879059
v -88.648415 16.620388 -442.229309
v -81.792984 16.179159 -445.813629
v -96.099548 17.928020 -431.492310
v -92.587257 17.051483 -438.627106
v -76.582596 16.145355 -446.088196
v -96.624908 18.624519 -425.864258
v -4.150367 19.287970 -419.842957
v -77.590317 16.477922 -446.455627
v -94.455208 20.196449 -415.468323
v -1.666267 20.196449 -415.468323
v -1.666267 20.940933 -415.558807
v -94.455208 20.940933 -415.558807
v -97.055222 19.740940 -425.997986
v -97.055222 18.996456 -425.907623
v -94.124100 19.786190 -415.740662
v -3.764423 19.678862 -419.730255
v -7.575325 18.950085 -425.831482
v -8.002051 18.564804 -425.897980
v -20.304787 16.966656 -442.358185
v -20.873739 16.605848 -442.223297
v -12.254657 17.872725 -431.780487
v -11.759272 18.248541 -431.791931
v -2.243269 19.791325 -415.698395
v -82.498047 16.525270 -446.069580
v -92.977859 17.417704 -438.717468
v -89.116302 16.978764 -442.384277
v -96.500114 18.298115 -431.550781
vt 0.051994 0.700008
vt 0.051619 0.700942
vt 0.047084 0.692238
vt 0.047393 0.691522
vt 0.042469 0.687278
vt 0.042649 0.686616
vt 0.033380 0.682752
vt 0.033445 0.682058
vt 0.052517 0.767255
vt 0.051887 0.766427
vt 0.052089 0.707557
vt 0.052797 0.706154
vt 0.050871 0.773093
vt 0.050445 0.772261
vt 0.053470 0.767428
vt 0.054313 0.766939
vt 0.052683 0.773220
vt 0.051729 0.773469
vt 0.026127 0.795037
vt 0.026101 0.795800
vt 0.017946 0.800451
vt 0.018159 0.799706
vt 0.033914 0.789543
vt 0.034002 0.790346
vt 0.046971 0.778315
vt 0.047220 0.779121
vt 0.026214 0.682063
vt 0.013290 0.685211
vt 0.013014 0.801980
vt 0.073713 0.682069
vt 0.054947 0.700532
vt 0.059661 0.691668
vt 0.064381 0.686583
vt 0.081063 0.681417
vt 0.054562 0.707281
vt 0.088367 0.801170
vt 0.053774 0.706066
vt 0.012757 0.802672
vt 0.012486 0.803075
vt 0.012200 0.684204
vt 0.012791 0.684685
vt 0.026088 0.680386
vt 0.026179 0.681341
vt 0.025984 0.679653
vt 0.011970 0.683926
vt 0.018284 0.801322
vt 0.018889 0.801741
vt 0.026624 0.796641
vt 0.027334 0.796947
vt 0.048783 0.779866
vt 0.047933 0.779721
vt 0.035359 0.791415
vt 0.034596 0.791121
vt 0.012772 0.803104
vt 0.080491 0.796138
vt 0.055686 0.772939
vt 0.052874 0.699720
vt 0.053811 0.700175
vt 0.043216 0.685842
vt 0.048173 0.690949
vt 0.033705 0.681134
vt 0.034006 0.680490
vt 0.043803 0.685446
vt 0.048980 0.690857
vt 0.072843 0.790587
vt 0.059269 0.779347
vt 0.094241 0.684713
vt 0.093784 0.803697
vt 0.046573 0.691614
vt 0.051156 0.700356
vt 0.051527 0.699416
vt 0.046882 0.690894
vt 0.041921 0.686635
vt 0.042102 0.685969
vt 0.032769 0.682101
vt 0.032832 0.681403
vt 0.051653 0.707017
vt 0.051530 0.766343
vt 0.052164 0.767144
vt 0.052367 0.705559
vt 0.050110 0.772219
vt 0.050548 0.773057
vt 0.052383 0.773176
vt 0.053975 0.766762
vt 0.053125 0.767296
vt 0.051418 0.773432
vt 0.017369 0.800727
vt 0.025608 0.796013
vt 0.025632 0.795243
vt 0.017580 0.799967
vt 0.033571 0.790500
vt 0.033481 0.789691
vt 0.046881 0.779153
vt 0.046627 0.778341
vt 0.025559 0.681424
vt 0.012563 0.684636
vt 0.012371 0.802290
vt 0.059261 0.690844
vt 0.054520 0.699803
vt 0.073429 0.681122
vt 0.064017 0.685699
vt 0.054146 0.706619
vt 0.080849 0.680448
vt 0.088342 0.801187
vt 0.053348 0.705456
vt 0.011484 0.683656
vt 0.011812 0.803436
vt 0.012091 0.803013
vt 0.012071 0.684125
vt 0.025522 0.680699
vt 0.025426 0.679740
vt 0.025318 0.679004
vt 0.011262 0.683394
vt 0.017714 0.801613
vt 0.026137 0.796861
vt 0.018332 0.802036
vt 0.026854 0.797169
vt 0.047602 0.779757
vt 0.048460 0.779902
vt 0.034941 0.791577
vt 0.034172 0.791281
vt 0.012091 0.803492
vt 0.080398 0.796132
vt 0.055368 0.772805
vt 0.053348 0.699578
vt 0.052407 0.699124
vt 0.042670 0.685189
vt 0.047666 0.690316
vt 0.033092 0.680473
vt 0.033393 0.679824
vt 0.043259 0.684790
vt 0.048477 0.690222
vt 0.072684 0.790554
vt 0.058989 0.779254
vt 0.093784 0.803697
vt 0.094160 0.683729
vn 0.3167 0.6718 -0.6696
vn 0.4999 0.6148 -0.6100
vn 0.6403 0.6583 -0.3958
vn -0.0002 0.5710 -0.8209
vn 0.0496 0.5587 -0.8279
vn -0.1571 0.6667 -0.7286
vn -0.1571 -0.8216 -0.5479
vn -0.6856 0.5330 -0.4958
vn -0.6096 0.6102 -0.5060
vn -0.5093 0.6997 -0.5010
vn 0.0007 0.9925 -0.1222
vn 0.0005 0.9926 -0.1212
vn -0.0005 0.9928 -0.1202
vn 0.0007 0.9930 -0.1183
vn 0.0028 0.9931 -0.1169
vn -0.0002 0.9933 -0.1160
vn -0.0005 -0.9926 0.1212
vn -0.0007 -0.9925 0.1222
vn 0.0005 -0.9928 0.1202
vn 0.0000 -0.1206 -0.9927
vn 0.0000 0.1207 0.9927
vn -0.3270 0.6901 -0.6457
vn 0.9707 0.0290 0.2384
vn 0.6579 -0.7121 0.2450
vn -0.8984 -0.0530 -0.4359
vn -0.6853 -0.6353 -0.3561
vn -0.3256 -0.8237 -0.4642
vn -0.5093 -0.7992 -0.3191
vn 0.0002 0.7130 0.7012
vn 0.6549 0.7519 0.0761
vn -0.6675 -0.7075 -0.2321
vn -0.7798 -0.0755 -0.6215
vn -0.8203 -0.0689 -0.5677
vn -0.2466 -0.1169 -0.9620
vn -0.5157 -0.1033 -0.8505
vn -0.8498 -0.0635 -0.5232
vn -0.6675 0.6314 -0.3947
vn -0.0007 -0.9930 0.1183
vn -0.0002 -0.7509 -0.6604
vn 0.0497 -0.7407 -0.6699
vn -0.6087 -0.7121 -0.3498
vn 0.6676 0.7284 -0.1541
vn 0.0002 -0.5245 0.8514
vn 0.6911 -0.0871 -0.7174
vn 0.8988 -0.0528 -0.4352
vn 0.0790 -0.1202 -0.9896
vn 0.4893 -0.1051 -0.8658
vn 0.9953 -0.0117 -0.0965
vn 0.6677 -0.7439 0.0280
vn 0.6408 -0.7340 -0.2250
vn 0.4991 -0.7425 -0.4467
vn 0.3173 -0.8131 -0.4881
vn -0.0028 -0.9931 0.1169
vn 0.0002 -0.9933 0.1160
vn -0.3167 0.6718 -0.6696
vn -0.4999 0.6148 -0.6100
vn -0.6403 0.6583 -0.3958
vn 0.0002 0.5710 -0.8209
vn -0.0496 0.5587 -0.8279
vn 0.1571 0.6667 -0.7286
vn 0.1571 -0.8216 -0.5479
vn 0.6856 0.5330 -0.4958
vn 0.6096 0.6102 -0.5061
vn 0.5093 0.6997 -0.5010
vn -0.0007 0.9925 -0.1222
vn -0.0005 0.9926 -0.1212
vn 0.0005 0.9928 -0.1202
vn -0.0007 0.9930 -0.1183
vn -0.0028 0.9931 -0.1169
vn 0.0002 0.9933 -0.1160
vn 0.0005 -0.9926 0.1212
vn 0.0007 -0.9925 0.1222
vn -0.0005 -0.9928 0.1202
vn 0.3270 0.6901 -0.6457
vn -0.9707 0.0290 0.2384
vn -0.6579 -0.7121 0.2450
vn 0.8984 -0.0530 -0.4359
vn 0.6853 -0.6353 -0.3561
vn 0.3256 -0.8237 -0.4642
vn 0.5093 -0.7992 -0.3191
vn -0.0002 0.7130 0.7012
vn -0.6549 0.7519 0.0761
vn 0.6675 -0.7075 -0.2321
vn 0.7798 -0.0755 -0.6215
vn 0.8203 -0.0689 -0.5677
vn 0.2466 -0.1169 -0.9620
vn 0.5157 -0.1033 -0.8505
vn 0.8498 -0.0635 -0.5232
vn 0.6675 0.6314 -0.3947
vn 0.0007 -0.9930 0.1183
vn 0.0002 -0.7509 -0.6604
vn -0.0497 -0.7407 -0.6699
vn 0.6087 -0.7121 -0.3498
vn -0.6676 0.7284 -0.1541
vn -0.0002 -0.5245 0.8514
vn -0.6912 -0.0871 -0.7174
vn -0.8988 -0.0528 -0.4352
vn -0.0790 -0.1202 -0.9896
vn -0.4893 -0.1051 -0.8658
vn -0.9953 -0.0117 -0.0965
vn -0.6677 -0.7439 0.0280
vn -0.6408 -0.7340 -0.2250
vn -0.4991 -0.7425 -0.4467
vn -0.3173 -0.8131 -0.4881
vn 0.0028 -0.9931 0.1169
vn -0.0002 -0.9933 0.1160
usemtl camel
s off
f 1/1/1 2/2/1 3/3/1 4/4/1
f 4/4/2 3/3/2 5/5/2 6/6/2
f 6/6/3 5/5/3 7/7/3 8/8/3
f 9/9/4 10/10/4 11/11/4 12/12/4
f 2/2/5 1/1/5 12/12/5 11/11/5
f 13/13/6 14/14/6 10/10/6 9/9/6
f 15/15/7 16/16/7 17/17/7 18/18/7
f 19/19/8 20/20/8 21/21/8 22/22/8
f 23/23/9 24/24/9 20/20/9 19/19/9
f 25/25/10 26/26/10 24/24/10 23/23/10
f 7/7/11 2/2/11 11/11/11 27/27/11
f 5/5/12 3/3/12 2/2/12 7/7/12
f 27/27/13 11/11/13 10/10/13 22/22/13
f 14/14/14 19/19/14 22/22/14 10/10/14
f 25/25/15 23/23/15 19/19/15 14/14/15
f 28/28/16 27/27/16 22/22/16 29/29/16
f 30/30/17 31/31/17 32/32/17 33/33/17
f 34/34/18 35/35/18 31/31/18 30/30/18
f 36/36/19 16/16/19 35/35/19 34/34/19
f 12/12/20 37/37/20 15/15/20 9/9/20
f 38/38/21 39/39/21 40/40/21 41/41/21
f 14/14/22 13/13/22 26/26/22 25/25/22
f 40/40/23 42/42/23 43/43/23 41/41/23
f 34/44/24 42/42/24 40/40/24 44/45/24
f 38/38/25 21/21/25 45/46/25 39/39/25
f 36/47/26 45/46/26 46/48/26 47/49/26
f 48/50/27 49/51/27 18/18/27 17/17/27
f 49/51/28 48/50/28 50/52/28 51/53/28
f 41/41/29 28/28/29 29/29/29 38/38/29
f 28/28/30 41/41/30 43/43/30 27/27/30
f 45/46/31 36/47/31 52/54/31 39/39/31
f 49/51/32 51/53/32 24/24/32 26/26/32
f 51/53/33 46/48/33 20/20/33 24/24/33
f 15/15/34 18/18/34 13/13/34 9/9/34
f 18/18/35 49/51/35 26/26/35 13/13/35
f 46/48/36 45/46/36 21/21/36 20/20/36
f 38/38/37 29/29/37 22/22/37 21/21/37
f 16/16/38 36/36/38 47/55/38 17/56/38
f 16/16/39 15/15/39 37/37/39 35/35/39
f 53/57/40 31/58/40 35/35/40 37/37/40
f 47/49/41 46/48/41 51/53/41 50/52/41
f 27/27/42 43/43/42 8/8/42 7/7/42
f 39/39/43 52/54/43 44/45/43 40/40/43
f 4/4/44 6/6/44 54/59/44 55/60/44
f 6/6/45 8/8/45 56/61/45 54/59/45
f 12/12/46 1/1/46 53/57/46 37/37/46
f 1/1/47 4/4/47 55/60/47 53/57/47
f 8/8/48 43/43/48 42/42/48 56/61/48
f 30/62/49 56/61/49 42/42/49 34/44/49
f 56/61/50 30/62/50 33/63/50 54/59/50
f 54/59/51 33/63/51 32/64/51 55/60/51
f 55/60/52 32/64/52 31/58/52 53/57/52
f 17/56/53 47/55/53 50/65/53 48/66/53
f 34/34/54 44/67/54 52/68/54 36/36/54
f 57/69/55 58/70/55 59/71/55 60/72/55
f 61/73/56 57/69/56 60/72/56 62/74/56
f 63/75/57 61/73/57 62/74/57 64/76/57
f 65/77/58 66/78/58 67/79/58 68/80/58
f 68/80/59 59/71/59 58/70/59 65/77/59
f 66/78/60 69/81/60 70/82/60 67/79/60
f 71/83/61 72/84/61 73/85/61 74/86/61
f 75/87/62 76/88/62 77/89/62 78/90/62
f 76/88/63 79/91/63 80/92/63 77/89/63
f 79/91/64 81/93/64 82/94/64 80/92/64
f 65/77/65 58/70/65 63/75/65 83/95/65
f 58/70/66 57/69/66 61/73/66 63/75/66
f 66/78/67 65/77/67 83/95/67 78/90/67
f 78/90/68 77/89/68 69/81/68 66/78/68
f 77/89/69 80/92/69 82/94/69 69/81/69
f 78/90/70 83/95/70 84/96/70 85/97/70
f 86/98/71 87/99/71 88/100/71 89/101/71
f 87/99/72 90/102/72 91/103/72 88/100/72
f 90/102/73 72/84/73 92/104/73 91/103/73
f 73/85/20 93/105/20 68/80/20 67/79/20
f 94/106/21 95/107/21 96/108/21 97/109/21
f 81/93/74 70/82/74 69/81/74 82/94/74
f 98/110/75 99/111/75 94/106/75 97/109/75
f 94/106/76 99/111/76 91/112/76 100/113/76
f 101/114/77 75/87/77 96/108/77 95/107/77
f 102/115/78 101/114/78 92/116/78 103/117/78
f 74/86/79 104/118/79 105/119/79 71/83/79
f 106/120/80 105/119/80 104/118/80 107/121/80
f 85/97/81 84/96/81 97/109/81 96/108/81
f 98/110/82 97/109/82 84/96/82 83/95/82
f 108/122/83 92/116/83 101/114/83 95/107/83
f 79/91/84 107/121/84 104/118/84 81/93/84
f 76/88/85 102/115/85 107/121/85 79/91/85
f 70/82/86 74/86/86 73/85/86 67/79/86
f 81/93/87 104/118/87 74/86/87 70/82/87
f 75/87/88 101/114/88 102/115/88 76/88/88
f 78/90/89 85/97/89 96/108/89 75/87/89
f 103/123/90 92/104/90 72/84/90 71/124/90
f 93/105/91 73/85/91 72/84/91 90/102/91
f 90/102/92 87/125/92 109/126/92 93/105/92
f 107/121/93 102/115/93 103/117/93 106/120/93
f 64/76/94 98/110/94 83/95/94 63/75/94
f 100/113/95 108/122/95 95/107/95 94/106/95
f 110/127/96 62/74/96 60/72/96 111/128/96
f 112/129/97 64/76/97 62/74/97 110/127/97
f 109/126/98 59/71/98 68/80/98 93/105/98
f 111/128/99 60/72/99 59/71/99 109/126/99
f 99/111/100 98/110/100 64/76/100 112/129/100
f 99/111/101 112/129/101 88/130/101 91/112/101
f 89/131/102 88/130/102 112/129/102 110/127/102
f 86/132/103 89/131/103 110/127/103 111/128/103
f 87/125/104 86/132/104 111/128/104 109/126/104
f 106/133/105 103/123/105 71/124/105 105/134/105
f 108/135/106 100/136/106 91/103/106 92/104/106
