# Blender v2.79 (sub 0) OBJ File: ''
# www.blender.org
mtllib MainDestra2Test.mtl
o Spowith_f1_camel_D2
v -320.106598 -11.528682 -203.354095
v -324.348877 -10.600276 -201.850739
v -328.092041 -9.302211 -196.649033
v -330.356995 -7.715902 -187.892136
v -329.018524 -10.636225 -167.777527
v -328.274078 -6.198515 -167.777527
v -328.716278 -6.535070 -167.777527
v -329.337952 -10.232808 -167.777527
v -313.503571 -12.223180 -203.788788
v -330.254578 -6.778811 -183.107300
v -330.669983 -7.101937 -182.934509
v -320.121796 -12.469597 -202.654633
v -313.570618 -13.049323 -203.162155
v -330.648743 -10.783931 -181.157990
v -330.494690 -11.159390 -186.097961
v -330.993988 -10.385472 -181.336365
v -324.388184 -11.986740 -200.782181
v -330.014099 -11.299822 -190.619476
v -199.096313 -14.448388 -183.107300
v -199.096313 -13.752278 -167.777527
v -199.096313 -19.213415 -167.777527
v -199.096329 -18.474922 -181.157990
v -324.691437 -10.927181 -201.806366
v -324.714355 -11.630000 -201.245560
v -330.385254 -10.909188 -190.922836
v -328.481598 -9.602231 -196.410217
v -319.885651 -12.205789 -203.505951
v -313.464081 -12.778852 -203.785248
v -330.605164 -7.912645 -187.051086
v -330.726837 -10.752232 -185.729614
v -319.877289 -11.961712 -203.699249
v -199.096222 -19.309795 -203.785233
v -199.096222 -19.580265 -203.162140
v -313.448669 -12.595379 -203.933182
v -199.096222 -18.754124 -203.788788
v -199.096222 -19.126320 -203.933167
vt 0.031500 0.317634
vt 0.025849 0.320079
vt 0.021280 0.327077
vt 0.017785 0.338530
vt 0.992217 0.213943
vt 0.987359 0.214456
vt 0.987753 0.214000
vt 0.991801 0.213571
vt 0.040460 0.316784
vt 0.017744 0.344830
vt 0.020258 0.365609
vt 0.017134 0.344961
vt 0.019387 0.365607
vt 0.018745 0.311727
vt 0.028340 0.312470
vt 0.003327 0.280241
vt 0.003552 0.287477
vt 0.013462 0.365993
vt 0.014173 0.365883
vt 0.012583 0.346944
vt 0.011832 0.347201
vt 0.012496 0.308984
vt 0.004256 0.294099
vt 0.986657 0.228807
vt 0.986866 0.215464
vt 0.991607 0.215754
vt 0.990256 0.227329
vt 0.025248 0.319882
vt 0.024296 0.319207
vt 0.015023 0.333112
vt 0.020700 0.327257
vt 0.030774 0.315506
vt 0.031562 0.316514
vt 0.040520 0.315869
vt 0.040340 0.314916
vt 0.017024 0.339590
vt 0.012766 0.340438
vt 0.012211 0.339724
vt 0.014174 0.332936
vt 0.031731 0.316901
vt 0.195651 0.315916
vt 0.195672 0.314994
vt 0.040548 0.316216
vt 0.023753 0.318579
vt 0.195607 0.316784
vt 0.195607 0.344830
vt 0.196005 0.260644
vt 0.005714 0.260644
vt 0.196005 0.280241
vt 0.195551 0.365618
vt 0.195636 0.316237
vt 0.986990 0.354941
vt 0.992908 0.355303
vt 0.196005 0.312470
vt 0.989613 0.247132
vt 0.989298 0.246987
vt 0.990048 0.246487
vt 0.989780 0.247013
vn 0.1613 0.9780 -0.1327
vn 0.0000 0.0000 1.0000
vn 0.0857 0.9787 -0.1867
vn -0.6030 0.7963 0.0478
vn -0.0642 -0.9968 0.0467
vn -0.7769 -0.6214 0.1017
vn -0.1001 -0.9949 0.0144
vn 1.0000 0.0000 -0.0000
vn -0.7790 -0.4773 -0.4067
vn -0.1042 -0.9271 -0.3602
vn -0.8417 0.4575 -0.2866
vn -0.8117 -0.5841 0.0098
vn -0.7986 -0.5999 -0.0492
vn -0.7265 0.6749 -0.1294
vn -0.4047 -0.5615 -0.7218
vn -0.0522 -0.9144 -0.4014
vn -0.0893 -0.6183 -0.7809
vn 0.0094 0.5219 -0.8530
vn -0.9681 0.1685 -0.1854
vn -0.5619 -0.7867 -0.2558
vn -0.2809 -0.8752 -0.3939
vn -0.2486 0.3883 -0.8874
vn -0.6470 0.4927 -0.5819
vn -0.9977 0.0507 -0.0459
vn 0.0565 0.9766 -0.2073
vn -0.0621 -0.9979 -0.0182
vn 0.0583 0.9973 -0.0453
vn -0.0358 -0.6264 -0.7787
vn 0.0207 0.3629 -0.9316
vn -0.9799 0.1600 0.1192
vn -0.0576 -0.9969 0.0540
usemtl camel
s off
f 1/1/1 2/2/1 3/3/1 4/4/1
f 5/5/2 6/6/2 7/7/2 8/8/2
f 9/9/3 1/1/3 4/4/3 10/10/3
f 6/11/4 10/10/4 11/12/4 7/13/4
f 12/14/5 13/15/5 14/16/5 15/17/5
f 5/18/6 8/19/6 16/20/6 14/21/6
f 17/22/7 12/14/7 15/17/7 18/23/7
f 19/24/8 20/25/8 21/26/8 22/27/8
f 23/28/9 24/29/9 25/30/9 26/31/9
f 12/32/10 27/33/10 28/34/10 13/35/10
f 29/36/11 4/4/11 3/3/11 26/31/11
f 14/21/12 16/20/12 30/37/12 15/38/12
f 25/30/13 18/39/13 15/38/13 30/37/13
f 4/4/14 29/36/14 11/12/14 10/10/14
f 31/40/15 27/33/15 24/29/15 23/28/15
f 32/41/16 33/42/16 13/35/16 28/34/16
f 34/43/17 28/34/17 27/33/17 31/40/17
f 9/9/18 34/43/18 31/40/18 1/1/18
f 26/31/19 25/30/19 30/37/19 29/36/19
f 18/39/20 25/30/20 24/29/20 17/44/20
f 17/44/21 24/29/21 27/33/21 12/32/21
f 23/28/22 2/2/22 1/1/22 31/40/22
f 2/2/23 23/28/23 26/31/23 3/3/23
f 29/36/24 30/37/24 16/20/24 11/12/24
f 35/45/25 9/9/25 10/10/25 19/46/25
f 21/47/26 5/48/26 14/16/26 22/49/26
f 20/50/27 19/46/27 10/10/27 6/11/27
f 36/51/28 32/41/28 28/34/28 34/43/28
f 35/45/29 36/51/29 34/43/29 9/9/29
f 20/52/2 6/6/2 5/5/2 21/53/2
f 7/13/30 11/12/30 16/20/30 8/19/30
f 22/49/31 14/16/31 13/15/31 33/54/31
f 36/55/8 35/56/8 33/57/8 32/58/8
f 35/56/8 19/24/8 22/27/8 33/57/8
