# Blender v2.79 (sub 0) OBJ File: ''
# www.blender.org
mtllib MainSinistra2Test.mtl
o Spowith_f1_camel_E2
v 328.092041 -9.302211 -196.649033
v 324.348877 -10.600276 -201.850739
v 320.106598 -11.528682 -203.354095
v 330.356995 -7.715902 -187.892136
v 328.716278 -6.535070 -167.777527
v 328.274078 -6.198515 -167.777527
v 329.018524 -10.636225 -167.777527
v 329.337952 -10.232808 -167.777527
v 313.503571 -12.223180 -203.788788
v 330.254578 -6.778811 -183.107300
v 330.669983 -7.101937 -182.934509
v 330.648743 -10.783931 -181.157990
v 313.570618 -13.049323 -203.162155
v 320.121796 -12.469597 -202.654633
v 330.494690 -11.159390 -186.097961
v 330.993988 -10.385472 -181.336365
v 324.388184 -11.986740 -200.782181
v 330.014099 -11.299822 -190.619476
v 199.096313 -19.213415 -167.777527
v 199.096313 -13.752278 -167.777527
v 199.096313 -14.448388 -183.107300
v 199.096329 -18.474922 -181.157990
v 330.385254 -10.909188 -190.922836
v 324.714355 -11.630000 -201.245560
v 324.691437 -10.927181 -201.806366
v 328.481598 -9.602231 -196.410217
v 313.464081 -12.778852 -203.785248
v 319.885651 -12.205789 -203.505951
v 330.605164 -7.912645 -187.051086
v 330.726837 -10.752232 -185.729614
v 319.877289 -11.961712 -203.699249
v 199.096222 -19.580265 -203.162140
v 199.096222 -19.309795 -203.785233
v 313.448669 -12.595379 -203.933182
v 199.096222 -18.754124 -203.788788
v 199.096222 -19.126320 -203.933167
vt 0.939075 0.326589
vt 0.934507 0.319591
vt 0.928856 0.317145
vt 0.942571 0.338042
vt 0.987632 0.346225
vt 0.987277 0.345811
vt 0.991671 0.346283
vt 0.991294 0.346620
vt 0.919896 0.316295
vt 0.942612 0.344341
vt 0.943222 0.344473
vt 0.940098 0.365121
vt 0.940969 0.365119
vt 0.957051 0.280046
vt 0.932038 0.312275
vt 0.941633 0.311531
vt 0.956825 0.287282
vt 0.947773 0.346456
vt 0.946183 0.365395
vt 0.946894 0.365505
vt 0.948524 0.346713
vt 0.947882 0.308789
vt 0.956122 0.293904
vt 0.992671 0.225309
vt 0.987167 0.225174
vt 0.987491 0.240641
vt 0.991597 0.238775
vt 0.945333 0.332624
vt 0.936060 0.318718
vt 0.935108 0.319394
vt 0.939656 0.326769
vt 0.919835 0.315380
vt 0.928793 0.316026
vt 0.929582 0.315017
vt 0.920016 0.314428
vt 0.943331 0.339102
vt 0.947590 0.339950
vt 0.948144 0.339236
vt 0.946182 0.332447
vt 0.928625 0.316413
vt 0.764684 0.314505
vt 0.764705 0.315427
vt 0.919808 0.315727
vt 0.936603 0.318090
vt 0.764749 0.316295
vt 0.764749 0.344341
vt 0.954664 0.260449
vt 0.764373 0.260449
vt 0.764373 0.280046
vt 0.764805 0.365129
vt 0.764720 0.315749
vt 0.987191 0.218712
vt 0.992546 0.218396
vt 0.764373 0.312275
vt 0.992169 0.260979
vt 0.991322 0.261590
vt 0.991693 0.261744
vt 0.991882 0.261600
vn -0.1613 0.9780 -0.1327
vn -0.0000 0.0000 1.0000
vn -0.0857 0.9787 -0.1867
vn 0.6030 0.7963 0.0478
vn 0.0642 -0.9968 0.0467
vn 0.7769 -0.6214 0.1017
vn 0.1001 -0.9949 0.0144
vn -1.0000 0.0000 -0.0000
vn 0.7790 -0.4773 -0.4067
vn 0.1042 -0.9271 -0.3602
vn 0.8417 0.4575 -0.2866
vn 0.8117 -0.5841 0.0098
vn 0.7986 -0.5999 -0.0492
vn 0.7265 0.6749 -0.1294
vn 0.4047 -0.5615 -0.7218
vn 0.0522 -0.9144 -0.4014
vn 0.0893 -0.6183 -0.7809
vn -0.0094 0.5219 -0.8530
vn 0.9681 0.1685 -0.1854
vn 0.5619 -0.7867 -0.2558
vn 0.2809 -0.8752 -0.3939
vn 0.2486 0.3883 -0.8874
vn 0.6470 0.4927 -0.5819
vn 0.9977 0.0507 -0.0459
vn -0.0565 0.9766 -0.2073
vn 0.0621 -0.9979 -0.0182
vn -0.0583 0.9973 -0.0453
vn 0.0358 -0.6264 -0.7787
vn -0.0207 0.3629 -0.9316
vn 0.9799 0.1600 0.1192
vn 0.0576 -0.9969 0.0540
usemtl camel
s off
f 1/1/1 2/2/1 3/3/1 4/4/1
f 5/5/2 6/6/2 7/7/2 8/8/2
f 4/4/3 3/3/3 9/9/3 10/10/3
f 11/11/4 10/10/4 6/12/4 5/13/4
f 12/14/5 13/15/5 14/16/5 15/17/5
f 16/18/6 8/19/6 7/20/6 12/21/6
f 15/17/7 14/16/7 17/22/7 18/23/7
f 19/24/8 20/25/8 21/26/8 22/27/8
f 23/28/9 24/29/9 25/30/9 26/31/9
f 27/32/10 28/33/10 14/34/10 13/35/10
f 1/1/11 4/4/11 29/36/11 26/31/11
f 30/37/12 16/18/12 12/21/12 15/38/12
f 15/38/13 18/39/13 23/28/13 30/37/13
f 11/11/14 29/36/14 4/4/14 10/10/14
f 24/29/15 28/33/15 31/40/15 25/30/15
f 13/35/16 32/41/16 33/42/16 27/32/16
f 28/33/17 27/32/17 34/43/17 31/40/17
f 31/40/18 34/43/18 9/9/18 3/3/18
f 30/37/19 23/28/19 26/31/19 29/36/19
f 24/29/20 23/28/20 18/39/20 17/44/20
f 28/33/21 24/29/21 17/44/21 14/34/21
f 3/3/22 2/2/22 25/30/22 31/40/22
f 26/31/23 25/30/23 2/2/23 1/1/23
f 16/18/24 30/37/24 29/36/24 11/11/24
f 10/10/25 9/9/25 35/45/25 21/46/25
f 12/14/26 7/47/26 19/48/26 22/49/26
f 10/10/27 21/46/27 20/50/27 6/12/27
f 27/32/28 33/42/28 36/51/28 34/43/28
f 34/43/29 36/51/29 35/45/29 9/9/29
f 7/7/2 6/6/2 20/52/2 19/53/2
f 16/18/30 11/11/30 5/13/30 8/19/30
f 13/15/31 12/14/31 22/49/31 32/54/31
f 32/55/8 35/56/8 36/57/8 33/58/8
f 22/27/8 21/26/8 35/56/8 32/55/8
